HIERARCHY
ROOT root
{
	OFFSET 0.000000 0.000000 0.000000
	CHANNELS 6 Xposition Yposition Zposition Zrotation Yrotation Xrotation
	JOINT lhip
	{
		OFFSET 0.058581 -0.082280 -0.017664
		CHANNELS 3 Zrotation Yrotation Xrotation
		JOINT lknee
		{
			OFFSET 0.043451 -0.386469 0.008037
			CHANNELS 3 Zrotation Yrotation Xrotation
			JOINT lankle
			{
				OFFSET -0.014790 -0.426874 -0.037428
				CHANNELS 3 Zrotation Yrotation Xrotation
				JOINT ltoe
				{
					OFFSET 0.041054 -0.060286 0.122042
					CHANNELS 3 Zrotation Yrotation Xrotation
					End Site
					{
						OFFSET 0.000000 0.000000 0.000000
					}
				}
			}
		}
	}
	JOINT rhip
	{
		OFFSET -0.060310 -0.090513 -0.013543
		CHANNELS 3 Zrotation Yrotation Xrotation
		JOINT rknee
		{
			OFFSET -0.043257 -0.383688 -0.004843
			CHANNELS 3 Zrotation Yrotation Xrotation
			JOINT rankle
			{
				OFFSET 0.019056 -0.420046 -0.034562
				CHANNELS 3 Zrotation Yrotation Xrotation
				JOINT rtoe
				{
					OFFSET -0.034840 -0.062106 0.130323
					CHANNELS 3 Zrotation Yrotation Xrotation
					End Site
					{
						OFFSET 0.000000 0.000000 0.000000
					}
				}
			}
		}
	}
	JOINT lowerback
	{
		OFFSET 0.004439 0.124404 -0.038385
		CHANNELS 3 Zrotation Yrotation Xrotation
		JOINT upperback
		{
			OFFSET 0.004488 0.137956 0.026820
			CHANNELS 3 Zrotation Yrotation Xrotation
			JOINT chest
			{
				OFFSET -0.002265 0.056032 0.002855
				CHANNELS 3 Zrotation Yrotation Xrotation
				JOINT lowerneck
				{
					OFFSET -0.013390 0.211636 -0.033468
					CHANNELS 3 Zrotation Yrotation Xrotation
					JOINT upperneck
					{
						OFFSET 0.010113 0.088937 0.050410
						CHANNELS 3 Zrotation Yrotation Xrotation
						End Site
						{
							OFFSET 0.000000 0.000000 0.000000
						}
					}
				}
				JOINT lclavicle
				{
					OFFSET 0.071702 0.114000 -0.018898
					CHANNELS 3 Zrotation Yrotation Xrotation
					JOINT lshoulder
					{
						OFFSET 0.122921 0.045205 -0.019046
						CHANNELS 3 Zrotation Yrotation Xrotation
						JOINT lelbow
						{
							OFFSET 0.255332 -0.015649 -0.022946
							CHANNELS 3 Zrotation Yrotation Xrotation
							JOINT lwrist
							{
								OFFSET 0.265709 0.012698 -0.007375
								CHANNELS 3 Zrotation Yrotation Xrotation
								End Site
								{
									OFFSET 0.000000 0.000000 0.000000
								}
							}
						}
					}
				}
				JOINT rclavicle
				{
					OFFSET -0.082954 0.112472 -0.023707
					CHANNELS 3 Zrotation Yrotation Xrotation
					JOINT rshoulder
					{
						OFFSET -0.113228 0.046853 -0.008472
						CHANNELS 3 Zrotation Yrotation Xrotation
						JOINT relbow
						{
							OFFSET -0.260127 -0.014369 -0.031269
							CHANNELS 3 Zrotation Yrotation Xrotation
							JOINT rwrist
							{
								OFFSET -0.269108 0.006794 -0.006027
								CHANNELS 3 Zrotation Yrotation Xrotation
								End Site
								{
									OFFSET 0.000000 0.000000 0.000000
								}
							}
						}
					}
				}
			}
		}
	}
}
MOTION
Frames: 11
Frame Time: 0.033333
2.341042 0.665090 0.972471 -88.717514 -3.781934 76.455694 -11.015057 2.268787 9.088840 -2.690485 -8.094768 9.129579 8.464044 14.954071 -15.183103 0.000000 -0.000000 0.000000 -9.504991 -3.074707 0.833947 -0.757919 1.649388 26.491873 3.502476 -6.295067 -21.052046 0.000000 -0.000000 0.000000 7.370909 3.008215 4.384402 -5.127259 3.263855 -0.061950 -3.461919 4.439137 -3.178217 -0.666787 17.737486 21.955572 -2.930646 26.664976 14.119128 -29.410279 -4.264387 5.202950 -50.191569 -0.865990 6.044921 2.939092 -16.255926 4.935511 1.159555 -6.753263 5.360267 24.278584 10.998273 14.792503 54.777158 8.445518 16.186835 6.380729 21.276255 19.433433 -1.254040 3.591149 11.314043 
2.342571 0.664421 0.972469 -88.081791 -3.901111 76.641515 -11.248079 2.075894 8.639866 -2.712819 -8.193246 9.407522 8.107387 14.886316 -15.357185 0.000000 -0.000000 0.000000 -9.539597 -3.074127 0.553992 -1.063585 1.400462 26.700946 3.672818 -6.657411 -21.374651 0.000000 -0.000000 0.000000 7.202297 3.048923 4.703237 -5.515774 3.323663 -0.705450 -3.259830 4.423449 -3.089383 -1.632428 17.566823 21.596790 -2.931762 27.670720 13.231395 -29.583281 -4.762583 5.280801 -49.892399 -0.741846 5.652422 2.944128 -16.705493 4.457196 2.213063 -7.394085 6.162731 24.222630 11.081023 14.621379 54.853424 7.900473 15.188459 6.254879 21.864773 17.701570 -2.631185 4.415954 11.234217 
2.342635 0.663331 0.973133 -87.602340 -3.987752 76.325076 -11.497793 2.065962 9.222394 -2.530116 -8.539112 8.967598 8.117885 14.848220 -15.246922 0.000000 -0.000000 0.000000 -9.649168 -3.278167 1.157216 -1.284342 1.482703 26.379608 3.880012 -6.813856 -21.366830 0.000000 -0.000000 0.000000 7.168913 3.228624 4.806432 -5.608127 3.211213 -0.447759 -3.332556 4.554656 -3.097298 -1.699562 17.605722 21.520450 -2.919317 27.580645 13.155108 -29.539510 -4.937615 5.284625 -49.892010 -0.938060 5.744558 3.004054 -16.931789 4.389087 2.861420 -7.763511 5.742559 24.143993 11.127184 14.518888 55.145803 7.455855 14.831870 5.521998 22.328506 15.708445 -3.321860 4.686383 9.209347 
2.343789 0.662558 0.972880 -87.618465 -4.134998 76.185710 -11.577174 2.308979 9.282159 -2.648331 -8.479464 9.000805 8.048815 14.644384 -15.318232 0.000000 -0.000000 0.000000 -9.561732 -3.121596 1.062903 -1.631535 1.655229 26.654821 3.737231 -7.080689 -21.697233 0.000000 -0.000000 0.000000 7.132068 3.337477 5.058643 -5.670888 3.497268 -0.257204 -3.375454 4.697871 -3.207736 -1.758761 17.536061 21.162391 -2.746725 27.616493 13.281854 -29.451978 -4.704534 4.903031 -50.033118 -0.844348 5.810450 2.802828 -17.860335 4.278828 1.906657 -7.090069 5.199526 24.012258 11.071319 14.335801 55.308406 7.203938 14.299895 4.256957 22.946002 12.700688 -1.344408 3.538429 6.915687 
2.343582 0.661934 0.972642 -87.511150 -4.258362 76.209466 -11.736266 2.227699 9.337974 -2.746217 -8.448197 8.881067 8.152238 14.663519 -15.275356 0.000000 -0.000000 0.000000 -9.673706 -3.135490 1.109377 -1.766566 1.682627 26.547513 3.587505 -7.381914 -21.674463 0.000000 -0.000000 0.000000 7.033390 3.442101 4.616904 -5.570772 3.487157 0.123694 -3.419163 4.607677 -3.168241 -1.670613 17.547972 21.222096 -2.863353 27.552173 13.279339 -29.631818 -4.523504 4.938496 -49.955834 -0.809308 5.954699 2.719895 -17.995617 4.026866 2.001919 -7.203897 4.606500 24.134940 10.859605 14.412346 55.110609 7.460115 14.150951 3.863160 22.917692 11.582852 -1.501895 3.501733 6.065726 
2.344162 0.661649 0.972389 -87.666620 -4.283334 76.103133 -11.739296 2.240253 9.464961 -2.802842 -8.328180 8.778279 8.093389 14.734644 -15.313288 0.000000 -0.000000 0.000000 -9.570429 -2.828591 1.047045 -1.837383 1.694327 26.819790 3.436749 -7.449055 -21.931647 0.000000 -0.000000 0.000000 7.047624 3.247083 4.940027 -5.545031 3.630726 -0.084731 -3.427429 4.661684 -3.166110 -1.629521 17.245213 21.147832 -2.992359 27.284253 13.235426 -29.838113 -4.240364 4.800148 -49.798811 -0.612138 5.942472 2.520607 -18.037434 3.704924 1.290310 -7.092502 4.146203 24.166779 10.708808 14.266463 54.992734 7.535602 14.131887 3.467987 22.905902 10.768023 -1.550427 3.433249 5.636300 
2.344048 0.660961 0.972321 -87.566624 -4.144696 76.168156 -11.635055 2.353940 9.416412 -2.738720 -8.451441 8.752141 7.849661 14.588100 -15.297914 0.000000 -0.000000 0.000000 -9.476401 -2.958943 1.048943 -1.733610 1.809771 26.730071 3.291696 -7.450308 -22.048975 0.000000 -0.000000 0.000000 7.094775 3.145686 4.539513 -5.364401 3.448745 0.382841 -3.388388 4.678490 -3.294698 -1.715382 17.217248 21.111279 -3.076561 27.290981 12.718358 -29.626931 -4.075827 4.768459 -49.993174 -0.468200 5.822070 2.083481 -17.928382 3.667437 0.344918 -6.861805 3.871463 24.083451 10.624294 14.107751 54.820995 7.559588 13.902583 3.292451 22.926400 10.089380 -0.485474 3.193233 5.413975 
2.343982 0.660358 0.972540 -87.621456 -4.159110 76.274820 -11.702024 2.260675 9.313443 -2.736984 -8.350724 8.736947 7.718465 14.562744 -15.354841 0.000000 -0.000000 0.000000 -9.527787 -2.917294 0.985622 -1.797900 1.734078 26.647750 3.291671 -7.622991 -21.994232 0.000000 -0.000000 0.000000 7.009590 3.141860 4.248374 -5.281767 3.341445 0.656113 -3.324122 4.583136 -3.440668 -1.708864 17.155784 21.090831 -3.110908 27.295117 12.156384 -29.662285 -4.216072 5.003449 -50.046180 0.038663 5.808804 2.189979 -18.022912 3.867522 -0.941372 -6.218962 3.417696 24.035346 10.679389 14.278944 54.729555 7.420828 13.664074 3.129999 23.377176 9.677965 0.648792 2.356439 4.128454 
2.344098 0.660190 0.972502 -87.860933 -4.105868 76.330826 -11.693248 2.317397 9.361932 -2.566765 -8.271541 8.485722 7.672900 14.719402 -15.409047 0.000000 -0.000000 0.000000 -9.420395 -2.764136 0.924061 -1.728196 1.827796 26.562699 3.303300 -7.623390 -22.253231 0.000000 -0.000000 0.000000 7.018403 3.216028 4.289520 -5.202675 3.361000 0.693702 -3.225645 4.534202 -3.503610 -1.555451 17.091762 20.804988 -3.149522 26.937097 11.993639 -29.588458 -4.122476 5.069381 -50.130928 0.224397 5.915718 2.134646 -17.939946 4.374855 -1.112000 -6.447023 3.332048 24.145766 10.689377 14.179184 54.579530 7.298462 13.469340 2.928428 23.392047 9.151503 0.230393 2.791925 3.335184 
2.344179 0.660393 0.972578 -88.323592 -4.035773 76.405930 -11.407767 2.567801 9.261795 -2.720188 -8.028417 8.523003 7.591079 14.726824 -15.461239 0.000000 -0.000000 0.000000 -9.166097 -2.512536 0.781573 -1.785279 2.035548 26.492074 3.399943 -7.707804 -22.148918 0.000000 -0.000000 0.000000 7.057078 3.109160 4.657520 -5.187149 3.472883 0.321121 -3.152519 4.401999 -3.459372 -1.729684 17.144250 20.297219 -3.113326 27.232209 11.626466 -29.263999 -3.906720 5.439869 -50.290191 1.055570 6.090835 2.295233 -19.517120 5.389160 -0.710681 -6.623336 3.248696 23.834986 10.680541 14.143668 54.852024 6.965085 13.348339 2.674846 23.722888 8.780718 1.300311 2.419929 2.658179 
2.343843 0.660251 0.972708 -88.707123 -4.136255 76.577231 -11.535289 2.419273 9.245492 -2.745321 -7.879950 8.279047 7.725851 15.069567 -15.372760 0.000000 -0.000000 0.000000 -9.248460 -2.432109 0.600087 -1.587143 2.375378 26.365944 3.314556 -7.727514 -22.114592 0.000000 -0.000000 0.000000 6.874133 3.260395 4.395238 -5.071057 3.516193 0.563177 -3.164659 4.482960 -3.251024 -1.554987 17.170359 19.700227 -3.208905 26.882558 11.382728 -28.602748 -3.516051 5.289158 -50.408682 1.472738 6.873133 1.464610 -20.768966 7.420662 0.946176 -6.943825 3.911760 23.510517 10.390251 13.729585 55.066977 7.085397 13.392431 2.527876 23.342757 8.054146 1.522225 2.122246 1.974806 
